<svg width="12" height="16" viewBox="0 0 12 16" fill="none" xmlns="http://www.w3.org/2000/svg">
<path d="M7 4.25V0H0.75C0.3125 0 0 0.34375 0 0.75V15.25C0 15.6875 0.3125 16 0.75 16H11.25C11.6562 16 12 15.6875 12 15.25V5H7.75C7.3125 5 7 4.6875 7 4.25ZM9.375 10.875L6.375 13.875C6.15625 14.0625 5.8125 14.0625 5.59375 13.875L2.59375 10.875C2.28125 10.5625 2.5 10 2.9375 10H5V7.5C5 7.25 5.21875 7 5.5 7H6.5C6.75 7 7 7.25 7 7.5V10H9.03125C9.46875 10 9.6875 10.5625 9.375 10.875ZM11.7812 3.28125L8.71875 0.21875C8.5625 0.09375 8.375 0 8.1875 0H8V4H12V3.8125C12 3.625 11.9062 3.4375 11.7812 3.28125Z" fill="white"/>
</svg>
