<svg width="81" height="50" viewBox="0 0 81 50" fill="none" xmlns="http://www.w3.org/2000/svg">
<g clip-path="url(#clip0)">
<path d="M69.4986 47.3943L68.9074 50H0L0.591198 47.3943H69.4986Z" fill="#1380C4"/>
<path d="M80.2387 0L79.6475 2.6166H10.7401L11.3313 0H80.2387Z" fill="#1380C4"/>
<path d="M31.5743 5.40839L29.3847 15.0537H20.2759L19.1373 20.057H26.5273L24.261 30.0745H16.871L15.7543 34.9902L13.6304 44.3618H1.28093L3.40486 34.9902L4.51062 30.0745L6.78783 20.057L7.91548 15.0537L10.1051 5.40839H31.5743Z" fill="#1380C4"/>
<path d="M55.3208 5.40839L53.1312 15.0537H43.9567L42.818 20.057H50.2409L47.9637 30.0745H40.5518L39.4351 34.9902H48.6205L46.4966 44.3618H25.2682L27.3922 34.9902L28.4979 30.0745L30.7751 20.057L31.9028 15.0537L34.0924 5.40839H55.3208Z" fill="#1380C4"/>
<path d="M79.0125 5.40839L76.8229 15.0537H68.0206L66.8929 20.057H74.4581L72.1918 30.0745H64.6157L63.51 34.9902H72.3122L70.1883 44.3618H49.2008L51.3247 34.9902L52.4305 30.0745L54.7077 20.057L55.8353 15.0537L58.025 5.40839H79.0125Z" fill="#1380C4"/>
</g>
<defs>
<clipPath id="clip0">
<rect width="80.2387" height="50" fill="white"/>
</clipPath>
</defs>
</svg>
